<svg width="25" height="25" xmlns="http://www.w3.org/2000/svg" xmlns:xlink="http://www.w3.org/1999/xlink" xml:space="preserve" overflow="hidden"><g transform="translate(-679 -319)"><path d="M691.44 319.893C685.03 319.926 679.86 325.149 679.893 331.559 679.926 337.97 685.149 343.14 691.56 343.107 697.97 343.074 703.14 337.851 703.107 331.44 703.074 325.076 697.923 319.926 691.56 319.893Z" stroke="#000000" stroke-width="1.54762" fill="none"/><path d="M691.5 319.893 691.5 343.107M703.107 331.5 679.893 331.5M682.512 324.357C687.89 328.194 695.11 328.194 700.488 324.357M700.488 338.643C695.11 334.806 687.89 334.806 682.512 338.643M690.607 320.19C684.328 325.493 683.537 334.882 688.84 341.161 689.378 341.799 689.969 342.39 690.607 342.929M692.393 342.929C698.672 337.626 699.463 328.237 694.16 321.958 693.622 321.32 693.031 320.729 692.393 320.19" stroke="#000000" stroke-width="1.07143" fill="none"/></g></svg>