<svg width="40" height="40" xmlns="http://www.w3.org/2000/svg" xmlns:xlink="http://www.w3.org/1999/xlink" xml:space="preserve" overflow="hidden"><g transform="translate(-667 -566)"><path d="M687 566C698.044 566 707 574.956 707 586 707 597.044 698.044 606 687 606 675.956 606 667 597.05 667 586 667 574.95 675.956 566 687 566Z" fill="#26A17B"/><path d="M689.816 583.77 689.816 580.792 696.622 580.792 696.622 576.259 678.094 576.259 678.094 580.792 684.899 580.792 684.899 583.77C679.372 584.026 675.211 585.12 675.211 586.431 675.211 587.742 679.372 588.837 684.899 589.092L684.899 598.62 689.822 598.62 689.822 589.092C695.344 588.837 699.494 587.742 699.494 586.431 699.488 585.12 695.338 584.026 689.816 583.77ZM689.822 588.287C689.683 588.292 688.972 588.337 687.383 588.337 686.111 588.337 685.222 588.303 684.905 588.287L684.905 588.292C680.022 588.076 676.372 587.226 676.372 586.209 676.372 585.192 680.016 584.342 684.905 584.126L684.905 587.437C685.227 587.459 686.138 587.514 687.405 587.514 688.922 587.514 689.683 587.453 689.827 587.437L689.827 584.115C694.705 584.331 698.344 585.181 698.344 586.198 698.333 587.214 694.694 588.064 689.822 588.287" fill="#FFFFFF"/></g></svg>